<svg width="26" height="26" viewBox="0 0 26 26" fill="none" xmlns="http://www.w3.org/2000/svg">
<circle cx="14.4" cy="14.4" r="9.6" stroke="#E0E0E0" stroke-width="2.4"/>
<path d="M22.2864 8.64764C21.4179 9.66423 20.2642 10.4983 18.9206 11.0811C17.577 11.6638 16.082 11.9784 14.5592 11.9989C13.0363 12.0194 11.5293 11.7453 10.1627 11.1991C8.79603 10.6529 7.60893 9.85029 6.69946 8.85766" stroke="#E0E0E0" stroke-width="2.4"/>
<path d="M22.2864 20.1523C21.4179 19.1358 20.2642 18.3017 18.9206 17.7189C17.577 17.1362 16.082 16.8216 14.5592 16.8011C13.0363 16.7805 11.5293 17.0547 10.1627 17.6009C8.79603 18.1471 7.60893 18.9497 6.69946 19.9423" stroke="#E0E0E0" stroke-width="2.4"/>
<path d="M14.4 4.79999V24" stroke="#E0E0E0" stroke-width="2.4"/>
</svg>
